<?xml version="1.0" encoding="UTF-8" standalone="no"?>
<svg width="200px" height="200px" viewBox="0 0 200 200" version="1.1" xmlns="http://www.w3.org/2000/svg" xmlns:xlink="http://www.w3.org/1999/xlink">
    <!-- Generator: Sketch 3.7.2 (28276) - http://www.bohemiancoding.com/sketch -->
    <title>4</title>
    <desc>Created with Sketch.</desc>
    <defs>
        <rect id="path-1" x="0" y="0" width="200" height="200"></rect>
    </defs>
    <g id="pattern" stroke="none" stroke-width="1" fill="none" fill-rule="evenodd">
        <g id="4">
            <g>
                <mask id="mask-2" fill="white">
                    <use xlink:href="#path-1"></use>
                </mask>
                <use id="Mask" fill-opacity="0" fill="#D8D8D8" xlink:href="#path-1"></use>
                <g id="Group" mask="url(#mask-2)" stroke="#000000" stroke-opacity="0.02" stroke-width="1.19760479">
                    <g transform="translate(0.000000, 0.399202)" id="Shape" fill="#222222" fill-opacity="0.0286666667">
                        <polyline points="0 0 19.9834163 13.5728543 19.9834163 39.9201597 0 26.3473054 0 0"></polyline>
                        <polyline points="19.9834163 13.5728543 39.9668325 0 39.9668325 26.3473054 19.9834163 39.9201597 19.9834163 13.5728543"></polyline>
                    </g>
                    <g transform="translate(0.000000, 158.483034)" id="Shape" fill="#222222" fill-opacity="0.0286666667">
                        <polyline points="0 0 19.9834163 13.5728543 19.9834163 39.9201597 0 26.3473054 0 0"></polyline>
                        <polyline points="19.9834163 13.5728543 39.9668325 0 39.9668325 26.3473054 19.9834163 39.9201597 19.9834163 13.5728543"></polyline>
                    </g>
                    <g transform="translate(39.966833, 0.399202)" id="Shape" fill="#222222" fill-opacity="0.046">
                        <polyline points="0 0 19.9834163 13.5728543 19.9834163 39.9201597 0 26.3473054 0 0"></polyline>
                        <polyline points="19.9834163 13.5728543 39.9668325 0 39.9668325 26.3473054 19.9834163 39.9201597 19.9834163 13.5728543"></polyline>
                    </g>
                    <g transform="translate(39.966833, 158.483034)" id="Shape" fill="#222222" fill-opacity="0.046">
                        <polyline points="0 0 19.9834163 13.5728543 19.9834163 39.9201597 0 26.3473054 0 0"></polyline>
                        <polyline points="19.9834163 13.5728543 39.9668325 0 39.9668325 26.3473054 19.9834163 39.9201597 19.9834163 13.5728543"></polyline>
                    </g>
                    <g transform="translate(79.933665, 0.399202)" id="Shape" fill="#DDDDDD" fill-opacity="0.0546666667">
                        <polyline points="0 0 19.9834163 13.5728543 19.9834163 39.9201597 0 26.3473054 0 0"></polyline>
                        <polyline points="19.9834163 13.5728543 39.9668325 0 39.9668325 26.3473054 19.9834163 39.9201597 19.9834163 13.5728543"></polyline>
                    </g>
                    <g transform="translate(79.933665, 158.483034)" id="Shape" fill="#DDDDDD" fill-opacity="0.0546666667">
                        <polyline points="0 0 19.9834163 13.5728543 19.9834163 39.9201597 0 26.3473054 0 0"></polyline>
                        <polyline points="19.9834163 13.5728543 39.9668325 0 39.9668325 26.3473054 19.9834163 39.9201597 19.9834163 13.5728543"></polyline>
                    </g>
                    <g transform="translate(119.900498, 0.399202)" id="Shape" fill="#DDDDDD" fill-opacity="0.02">
                        <polyline points="0 0 19.9834163 13.5728543 19.9834163 39.9201597 0 26.3473054 0 0"></polyline>
                        <polyline points="19.9834163 13.5728543 39.9668325 0 39.9668325 26.3473054 19.9834163 39.9201597 19.9834163 13.5728543"></polyline>
                    </g>
                    <g transform="translate(119.900498, 158.483034)" id="Shape" fill="#DDDDDD" fill-opacity="0.02">
                        <polyline points="0 0 19.9834163 13.5728543 19.9834163 39.9201597 0 26.3473054 0 0"></polyline>
                        <polyline points="19.9834163 13.5728543 39.9668325 0 39.9668325 26.3473054 19.9834163 39.9201597 19.9834163 13.5728543"></polyline>
                    </g>
                    <g transform="translate(159.867330, 0.399202)" id="Shape" fill="#222222" fill-opacity="0.115333333">
                        <polyline points="0 0 19.9834163 13.5728543 19.9834163 39.9201597 0 26.3473054 0 0"></polyline>
                        <polyline points="19.9834163 13.5728543 39.9668325 0 39.9668325 26.3473054 19.9834163 39.9201597 19.9834163 13.5728543"></polyline>
                    </g>
                    <g transform="translate(159.867330, 158.483034)" id="Shape" fill="#222222" fill-opacity="0.115333333">
                        <polyline points="0 0 19.9834163 13.5728543 19.9834163 39.9201597 0 26.3473054 0 0"></polyline>
                        <polyline points="19.9834163 13.5728543 39.9668325 0 39.9668325 26.3473054 19.9834163 39.9201597 19.9834163 13.5728543"></polyline>
                    </g>
                    <g transform="translate(199.834163, 0.399202)" id="Shape" fill="#222222" fill-opacity="0.046">
                        <polyline points="0 0 19.9834163 13.5728543 19.9834163 39.9201597 0 26.3473054 0 0"></polyline>
                    </g>
                    <g transform="translate(199.834163, 158.483034)" id="Shape" fill="#222222" fill-opacity="0.046">
                        <polyline points="0 0 19.9834163 13.5728543 19.9834163 39.9201597 0 26.3473054 0 0"></polyline>
                    </g>
                    <g transform="translate(0.000000, 26.746507)" id="Shape" fill="#222222" fill-opacity="0.115333333">
                        <polyline points="0 0 19.9834163 13.5728543 19.9834163 39.9201597 0 26.3473054 0 0"></polyline>
                        <polyline points="19.9834163 13.5728543 39.9668325 0 39.9668325 26.3473054 19.9834163 39.9201597 19.9834163 13.5728543"></polyline>
                    </g>
                    <g transform="translate(39.966833, 26.746507)" id="Shape" fill="#DDDDDD" fill-opacity="0.141333333">
                        <polyline points="0 0 19.9834163 13.5728543 19.9834163 39.9201597 0 26.3473054 0 0"></polyline>
                        <polyline points="19.9834163 13.5728543 39.9668325 0 39.9668325 26.3473054 19.9834163 39.9201597 19.9834163 13.5728543"></polyline>
                    </g>
                    <g transform="translate(79.933665, 26.746507)" id="Shape" fill="#222222" fill-opacity="0.0286666667">
                        <polyline points="0 0 19.9834163 13.5728543 19.9834163 39.9201597 0 26.3473054 0 0"></polyline>
                        <polyline points="19.9834163 13.5728543 39.9668325 0 39.9668325 26.3473054 19.9834163 39.9201597 19.9834163 13.5728543"></polyline>
                    </g>
                    <g transform="translate(119.900498, 26.746507)" id="Shape" fill="#DDDDDD" fill-opacity="0.0893333333">
                        <polyline points="0 0 19.9834163 13.5728543 19.9834163 39.9201597 0 26.3473054 0 0"></polyline>
                        <polyline points="19.9834163 13.5728543 39.9668325 0 39.9668325 26.3473054 19.9834163 39.9201597 19.9834163 13.5728543"></polyline>
                    </g>
                    <g transform="translate(159.867330, 26.746507)" id="Shape" fill="#222222" fill-opacity="0.098">
                        <polyline points="0 0 19.9834163 13.5728543 19.9834163 39.9201597 0 26.3473054 0 0"></polyline>
                        <polyline points="19.9834163 13.5728543 39.9668325 0 39.9668325 26.3473054 19.9834163 39.9201597 19.9834163 13.5728543"></polyline>
                    </g>
                    <g transform="translate(199.834163, 26.746507)" id="Shape" fill="#DDDDDD" fill-opacity="0.124">
                        <polyline points="0 0 19.9834163 13.5728543 19.9834163 39.9201597 0 26.3473054 0 0"></polyline>
                    </g>
                    <g transform="translate(0.000000, 53.093812)" id="Shape" fill="#222222" fill-opacity="0.0806666667">
                        <polyline points="0 0 19.9834163 13.5728543 19.9834163 39.9201597 0 26.3473054 0 0"></polyline>
                        <polyline points="19.9834163 13.5728543 39.9668325 0 39.9668325 26.3473054 19.9834163 39.9201597 19.9834163 13.5728543"></polyline>
                    </g>
                    <g transform="translate(39.966833, 53.093812)" id="Shape" fill="#DDDDDD" fill-opacity="0.124">
                        <polyline points="0 0 19.9834163 13.5728543 19.9834163 39.9201597 0 26.3473054 0 0"></polyline>
                        <polyline points="19.9834163 13.5728543 39.9668325 0 39.9668325 26.3473054 19.9834163 39.9201597 19.9834163 13.5728543"></polyline>
                    </g>
                    <g transform="translate(79.933665, 53.093812)" id="Shape" fill="#222222" fill-opacity="0.098">
                        <polyline points="0 0 19.9834163 13.5728543 19.9834163 39.9201597 0 26.3473054 0 0"></polyline>
                        <polyline points="19.9834163 13.5728543 39.9668325 0 39.9668325 26.3473054 19.9834163 39.9201597 19.9834163 13.5728543"></polyline>
                    </g>
                    <g transform="translate(119.900498, 53.093812)" id="Shape" fill="#222222" fill-opacity="0.098">
                        <polyline points="0 0 19.9834163 13.5728543 19.9834163 39.9201597 0 26.3473054 0 0"></polyline>
                        <polyline points="19.9834163 13.5728543 39.9668325 0 39.9668325 26.3473054 19.9834163 39.9201597 19.9834163 13.5728543"></polyline>
                    </g>
                    <g transform="translate(159.867330, 53.093812)" id="Shape" fill="#DDDDDD" fill-opacity="0.124">
                        <polyline points="0 0 19.9834163 13.5728543 19.9834163 39.9201597 0 26.3473054 0 0"></polyline>
                        <polyline points="19.9834163 13.5728543 39.9668325 0 39.9668325 26.3473054 19.9834163 39.9201597 19.9834163 13.5728543"></polyline>
                    </g>
                    <g transform="translate(199.834163, 53.093812)" id="Shape" fill="#222222" fill-opacity="0.115333333">
                        <polyline points="0 0 19.9834163 13.5728543 19.9834163 39.9201597 0 26.3473054 0 0"></polyline>
                    </g>
                    <g transform="translate(0.000000, 79.441118)" id="Shape" fill="#222222" fill-opacity="0.046">
                        <polyline points="0 0 19.9834163 13.5728543 19.9834163 39.9201597 0 26.3473054 0 0"></polyline>
                        <polyline points="19.9834163 13.5728543 39.9668325 0 39.9668325 26.3473054 19.9834163 39.9201597 19.9834163 13.5728543"></polyline>
                    </g>
                    <g transform="translate(39.966833, 79.441118)" id="Shape" fill="#222222" fill-opacity="0.0633333333">
                        <polyline points="0 0 19.9834163 13.5728543 19.9834163 39.9201597 0 26.3473054 0 0"></polyline>
                        <polyline points="19.9834163 13.5728543 39.9668325 0 39.9668325 26.3473054 19.9834163 39.9201597 19.9834163 13.5728543"></polyline>
                    </g>
                    <g transform="translate(79.933665, 79.441118)" id="Shape" fill="#222222" fill-opacity="0.15">
                        <polyline points="0 0 19.9834163 13.5728543 19.9834163 39.9201597 0 26.3473054 0 0"></polyline>
                        <polyline points="19.9834163 13.5728543 39.9668325 0 39.9668325 26.3473054 19.9834163 39.9201597 19.9834163 13.5728543"></polyline>
                    </g>
                    <g transform="translate(119.900498, 79.441118)" id="Shape" fill="#222222" fill-opacity="0.0806666667">
                        <polyline points="0 0 19.9834163 13.5728543 19.9834163 39.9201597 0 26.3473054 0 0"></polyline>
                        <polyline points="19.9834163 13.5728543 39.9668325 0 39.9668325 26.3473054 19.9834163 39.9201597 19.9834163 13.5728543"></polyline>
                    </g>
                    <g transform="translate(159.867330, 79.441118)" id="Shape" fill="#222222" fill-opacity="0.0286666667">
                        <polyline points="0 0 19.9834163 13.5728543 19.9834163 39.9201597 0 26.3473054 0 0"></polyline>
                        <polyline points="19.9834163 13.5728543 39.9668325 0 39.9668325 26.3473054 19.9834163 39.9201597 19.9834163 13.5728543"></polyline>
                    </g>
                    <g transform="translate(199.834163, 79.441118)" id="Shape" fill="#DDDDDD" fill-opacity="0.072">
                        <polyline points="0 0 19.9834163 13.5728543 19.9834163 39.9201597 0 26.3473054 0 0"></polyline>
                    </g>
                    <g transform="translate(0.000000, 105.788423)" id="Shape" fill="#DDDDDD" fill-opacity="0.0893333333">
                        <polyline points="0 0 19.9834163 13.5728543 19.9834163 39.9201597 0 26.3473054 0 0"></polyline>
                        <polyline points="19.9834163 13.5728543 39.9668325 0 39.9668325 26.3473054 19.9834163 39.9201597 19.9834163 13.5728543"></polyline>
                    </g>
                    <g transform="translate(39.966833, 105.788423)" id="Shape" fill="#DDDDDD" fill-opacity="0.124">
                        <polyline points="0 0 19.9834163 13.5728543 19.9834163 39.9201597 0 26.3473054 0 0"></polyline>
                        <polyline points="19.9834163 13.5728543 39.9668325 0 39.9668325 26.3473054 19.9834163 39.9201597 19.9834163 13.5728543"></polyline>
                    </g>
                    <g transform="translate(79.933665, 105.788423)" id="Shape" fill="#DDDDDD" fill-opacity="0.0373333333">
                        <polyline points="0 0 19.9834163 13.5728543 19.9834163 39.9201597 0 26.3473054 0 0"></polyline>
                        <polyline points="19.9834163 13.5728543 39.9668325 0 39.9668325 26.3473054 19.9834163 39.9201597 19.9834163 13.5728543"></polyline>
                    </g>
                    <g transform="translate(119.900498, 105.788423)" id="Shape" fill="#222222" fill-opacity="0.132666667">
                        <polyline points="0 0 19.9834163 13.5728543 19.9834163 39.9201597 0 26.3473054 0 0"></polyline>
                        <polyline points="19.9834163 13.5728543 39.9668325 0 39.9668325 26.3473054 19.9834163 39.9201597 19.9834163 13.5728543"></polyline>
                    </g>
                    <g transform="translate(159.867330, 105.788423)" id="Shape" fill="#222222" fill-opacity="0.0633333333">
                        <polyline points="0 0 19.9834163 13.5728543 19.9834163 39.9201597 0 26.3473054 0 0"></polyline>
                        <polyline points="19.9834163 13.5728543 39.9668325 0 39.9668325 26.3473054 19.9834163 39.9201597 19.9834163 13.5728543"></polyline>
                    </g>
                    <g transform="translate(199.834163, 105.788423)" id="Shape" fill="#222222" fill-opacity="0.15">
                        <polyline points="0 0 19.9834163 13.5728543 19.9834163 39.9201597 0 26.3473054 0 0"></polyline>
                    </g>
                    <g transform="translate(0.000000, 132.135729)" id="Shape" fill="#222222" fill-opacity="0.098">
                        <polyline points="0 0 19.9834163 13.5728543 19.9834163 39.9201597 0 26.3473054 0 0"></polyline>
                        <polyline points="19.9834163 13.5728543 39.9668325 0 39.9668325 26.3473054 19.9834163 39.9201597 19.9834163 13.5728543"></polyline>
                    </g>
                    <g transform="translate(39.966833, 132.135729)" id="Shape" fill="#DDDDDD" fill-opacity="0.072">
                        <polyline points="0 0 19.9834163 13.5728543 19.9834163 39.9201597 0 26.3473054 0 0"></polyline>
                        <polyline points="19.9834163 13.5728543 39.9668325 0 39.9668325 26.3473054 19.9834163 39.9201597 19.9834163 13.5728543"></polyline>
                    </g>
                    <g transform="translate(79.933665, 132.135729)" id="Shape" fill="#222222" fill-opacity="0.0806666667">
                        <polyline points="0 0 19.9834163 13.5728543 19.9834163 39.9201597 0 26.3473054 0 0"></polyline>
                        <polyline points="19.9834163 13.5728543 39.9668325 0 39.9668325 26.3473054 19.9834163 39.9201597 19.9834163 13.5728543"></polyline>
                    </g>
                    <g transform="translate(119.900498, 132.135729)" id="Shape" fill="#222222" fill-opacity="0.0286666667">
                        <polyline points="0 0 19.9834163 13.5728543 19.9834163 39.9201597 0 26.3473054 0 0"></polyline>
                        <polyline points="19.9834163 13.5728543 39.9668325 0 39.9668325 26.3473054 19.9834163 39.9201597 19.9834163 13.5728543"></polyline>
                    </g>
                    <g transform="translate(159.867330, 132.135729)" id="Shape" fill="#222222" fill-opacity="0.0633333333">
                        <polyline points="0 0 19.9834163 13.5728543 19.9834163 39.9201597 0 26.3473054 0 0"></polyline>
                        <polyline points="19.9834163 13.5728543 39.9668325 0 39.9668325 26.3473054 19.9834163 39.9201597 19.9834163 13.5728543"></polyline>
                    </g>
                    <g transform="translate(199.834163, 132.135729)" id="Shape" fill="#DDDDDD" fill-opacity="0.072">
                        <polyline points="0 0 19.9834163 13.5728543 19.9834163 39.9201597 0 26.3473054 0 0"></polyline>
                    </g>
                </g>
            </g>
        </g>
    </g>
</svg>